<?xml version="1.0" encoding="UTF-8"?>
<svg id="katman_1" data-name="katman 1" xmlns="http://www.w3.org/2000/svg" viewBox="0 0 1316.5 159">
  <defs>
    <style>
      .cls-1 {
        fill: #5574b8;
      }
    </style>
  </defs>
  <path class="cls-1" d="M284.85,114.77v-3.46l18.51-19.01c5.43-5.62,8.14-10.37,8.14-14.26,0-3.36-1.06-6-3.17-7.92-2.11-1.92-4.75-2.88-7.92-2.88-5.62,0-9.63,2.55-12.03,7.63l-3.24-1.95c1.49-3.02,3.57-5.34,6.23-6.95,2.67-1.61,5.68-2.41,9.04-2.41,4.08,0,7.6,1.3,10.55,3.89s4.43,6.12,4.43,10.59c0,2.87-.83,5.66-2.5,8.36-1.67,2.7-4,5.56-7,8.57l-15.6,16.12h26.25v3.67h-31.69Z"/>
  <path class="cls-1" d="M389.42,100.58v3.6h-6.48v10.59h-3.82v-10.59h-27.15v-3.6l19.16-36.23h4.18l-19.08,36.23h22.89v-15.84h3.82v15.84h6.48Z"/>
  <path class="cls-1" d="M429.18,94.24v-3.46h25.93v3.46h-25.93Z"/>
  <path class="cls-1" d="M496.09,114.77v-3.46l18.51-19.01c5.43-5.62,8.14-10.37,8.14-14.26,0-3.36-1.06-6-3.17-7.92-2.11-1.92-4.75-2.88-7.92-2.88-5.62,0-9.63,2.55-12.03,7.63l-3.24-1.95c1.49-3.02,3.57-5.34,6.23-6.95,2.67-1.61,5.68-2.41,9.04-2.41,4.08,0,7.6,1.3,10.55,3.89s4.43,6.12,4.43,10.59c0,2.87-.83,5.66-2.5,8.36-1.67,2.7-4,5.56-7,8.57l-15.6,16.12h26.25v3.67h-31.69Z"/>
  <path class="cls-1" d="M580.5,82.36c4.95,0,9,1.55,12.17,4.65,3.17,3.1,4.75,7.09,4.75,11.99s-1.58,8.82-4.75,11.92-7.23,4.65-12.17,4.65-9-1.55-12.17-4.65-4.75-7.07-4.75-11.92c0-3.81,1.01-7.18,3.04-10.12l16.99-24.52h4.32l-12.88,18.81c1.82-.54,3.64-.8,5.46-.8ZM571.03,108.28c2.38,2.4,5.53,3.6,9.47,3.6s7.11-1.2,9.51-3.6,3.6-5.5,3.6-9.29-1.2-6.96-3.6-9.36c-2.4-2.4-5.57-3.6-9.51-3.6s-7.09,1.2-9.47,3.6c-2.38,2.4-3.57,5.52-3.57,9.36s1.19,6.89,3.57,9.29Z"/>
  <path class="cls-1" d="M721.88,64.35h3.82v50.42h-3.39l-29.75-43.38v43.38h-3.82v-50.42h3.17l29.96,43.56v-43.56Z"/>
  <path class="cls-1" d="M771.79,59.09c-.96,0-1.76-.32-2.41-.97-.65-.65-.97-1.45-.97-2.41s.32-1.76.97-2.41c.65-.65,1.45-.97,2.41-.97.91,0,1.69.32,2.34.97.65.65.97,1.45.97,2.41s-.32,1.76-.97,2.41c-.65.65-1.43.97-2.34.97ZM769.92,64.35h3.82v50.42h-3.82v-50.42Z"/>
  <path class="cls-1" d="M832.65,115.56c-4.66,0-8.61-1.07-11.85-3.21-3.24-2.14-5.44-5.03-6.59-8.68l3.31-1.94c.91,3.12,2.65,5.59,5.22,7.42,2.57,1.83,5.87,2.74,9.9,2.74s7.21-.94,9.4-2.81c2.18-1.87,3.28-4.3,3.28-7.28,0-2.79-1.06-4.92-3.17-6.41-2.11-1.49-5.4-2.95-9.86-4.4-1.62-.59-2.81-1.02-3.55-1.3-.74-.27-1.82-.66-3.21-1.17-1.4-.51-2.43-.98-3.11-1.41-.67-.43-1.48-1.01-2.41-1.73-.94-.72-1.62-1.45-2.05-2.2-.43-.74-.82-1.63-1.15-2.67-.34-1.03-.5-2.17-.5-3.42,0-4.08,1.45-7.36,4.36-9.83,2.9-2.47,6.54-3.71,10.91-3.71,3.94,0,7.3.98,10.08,2.95,2.78,1.97,4.83,4.51,6.12,7.63l-3.24,1.8c-2.4-5.81-6.72-8.71-12.96-8.71-3.46,0-6.22.91-8.28,2.74s-3.1,4.15-3.1,6.98.96,4.78,2.88,6.12c1.92,1.34,5.07,2.74,9.44,4.17,2.75,1.03,4.91,1.84,6.49,2.43,1.58.59,3.27,1.45,5.07,2.58,1.8,1.13,3.11,2.47,3.92,4.04s1.22,3.38,1.22,5.44c0,4.18-1.51,7.53-4.54,10.05-3.02,2.52-7.03,3.78-12.03,3.78Z"/>
  <path class="cls-1" d="M923.47,114.77l-4.92-12.82h-25.24l-4.92,12.82h-4.03l19.59-50.42h4.04l19.52,50.42h-4.03ZM894.69,98.35h22.48l-11.24-29.29-11.23,29.29Z"/>
  <path class="cls-1" d="M999.67,64.35h3.82v50.42h-3.39l-29.75-43.38v43.38h-3.82v-50.42h3.17l29.96,43.56v-43.56Z"/>
</svg>